<?xml version="1.0" encoding="UTF-8"?>
<svg id="Layer_2" data-name="Layer 2" xmlns="http://www.w3.org/2000/svg" xmlns:xlink="http://www.w3.org/1999/xlink" viewBox="0 0 318.45 334.2">
  <defs>
    <style>
      .cls-1 {
        fill: url(#linear-gradient);
      }

      .cls-2 {
        fill: url(#linear-gradient-3);
      }

      .cls-3 {
        fill: url(#linear-gradient-4);
      }

      .cls-4 {
        fill: url(#linear-gradient-2);
      }

      .cls-5 {
        fill: url(#linear-gradient-6);
      }

      .cls-6 {
        fill: url(#linear-gradient-5);
      }
    </style>
    <linearGradient id="linear-gradient" x1="256.23" y1="56.11" x2="1.34" y2="56.11" gradientUnits="userSpaceOnUse">
      <stop offset="0" stop-color="#a94a9c" stop-opacity="0"/>
      <stop offset=".13" stop-color="#a9499c" stop-opacity=".26"/>
      <stop offset=".31" stop-color="#a9489c" stop-opacity=".58"/>
      <stop offset=".46" stop-color="#a9479c" stop-opacity=".81"/>
      <stop offset=".58" stop-color="#a9479c" stop-opacity=".95"/>
      <stop offset=".66" stop-color="#aa479c"/>
    </linearGradient>
    <linearGradient id="linear-gradient-2" x1="266.23" y1="279.72" y2="279.72" xlink:href="#linear-gradient"/>
    <linearGradient id="linear-gradient-3" x1="256.71" y1="97.9" x2="1.34" y2="97.9" gradientUnits="userSpaceOnUse">
      <stop offset="0" stop-color="#a94a9c" stop-opacity="0"/>
      <stop offset=".14" stop-color="#a9499c" stop-opacity=".27"/>
      <stop offset=".31" stop-color="#a9489c" stop-opacity=".58"/>
      <stop offset=".46" stop-color="#a9479c" stop-opacity=".81"/>
      <stop offset=".58" stop-color="#a9479c" stop-opacity=".95"/>
      <stop offset=".66" stop-color="#aa479c"/>
    </linearGradient>
    <linearGradient id="linear-gradient-4" x1="260.94" y1="239.01" x2=".58" y2="239.01" gradientUnits="userSpaceOnUse">
      <stop offset="0" stop-color="#a94a9c" stop-opacity="0"/>
      <stop offset=".09" stop-color="#a9499c" stop-opacity=".13"/>
      <stop offset=".28" stop-color="#a9489c" stop-opacity=".48"/>
      <stop offset=".53" stop-color="#aa479c"/>
    </linearGradient>
    <linearGradient id="linear-gradient-5" x1="318.45" y1="133.23" x2=".26" y2="133.23" gradientUnits="userSpaceOnUse">
      <stop offset="0" stop-color="#a94a9c" stop-opacity="0"/>
      <stop offset=".06" stop-color="#a9499c" stop-opacity=".05"/>
      <stop offset=".15" stop-color="#a9499c" stop-opacity=".17"/>
      <stop offset=".25" stop-color="#a9489c" stop-opacity=".38"/>
      <stop offset=".38" stop-color="#a9479c" stop-opacity=".67"/>
      <stop offset=".5" stop-color="#aa479c"/>
    </linearGradient>
    <linearGradient id="linear-gradient-6" x1="292.19" y1="204.14" x2="0" y2="204.14" gradientUnits="userSpaceOnUse">
      <stop offset="0" stop-color="#a94a9c" stop-opacity="0"/>
      <stop offset=".06" stop-color="#a9499c" stop-opacity=".07"/>
      <stop offset=".17" stop-color="#a9499c" stop-opacity=".25"/>
      <stop offset=".31" stop-color="#a9489c" stop-opacity=".54"/>
      <stop offset=".49" stop-color="#a9479c" stop-opacity=".95"/>
      <stop offset=".51" stop-color="#aa479c"/>
    </linearGradient>
  </defs>
  <g id="Layer_1-2" data-name="Layer 1">
    <path class="cls-1" d="M1.34,0L43.13,.05h10.45c3.47,.04,6.98-.07,10.48,.18,3.49,.25,6.99,.74,10.37,1.75,3.38,.99,6.63,2.44,9.58,4.38,5.89,3.93,10.34,9.68,13.47,15.93,1.56,3.15,2.74,6.48,3.49,9.92,.36,1.72,.59,3.47,.71,5.23,.07,1.77,.07,3.5,.09,5.24l.23,20.89,.11,10.45c0,3.48-.02,6.96,.49,10.38,.95,6.85,4.64,13.18,9.79,17.75,2.58,2.3,5.51,4.19,8.65,5.65,3.14,1.44,6.49,2.42,9.91,2.99,6.85,1.15,13.85,1.01,20.8,.85,6.97-.22,13.94-.11,20.9-.12l83.58,.1v.22l-83.58,.1c-6.97,.03-13.93-.06-20.89,.17-6.95,.17-13.97,.34-20.89-.81-3.45-.56-6.85-1.55-10.05-3.01-3.18-1.47-6.17-3.39-8.79-5.72-5.26-4.64-9.04-11.07-10.02-18.07-.53-3.48-.51-6.99-.52-10.47l-.14-10.45-.28-20.9c-.03-1.74-.03-3.49-.1-5.2-.12-1.72-.36-3.43-.71-5.12-.74-3.37-1.91-6.64-3.45-9.73-3.09-6.15-7.48-11.79-13.24-15.6-2.88-1.88-6.06-3.29-9.36-4.25-3.31-.98-6.75-1.46-10.2-1.69-3.45-.24-6.92-.12-10.41-.14h-10.45S1.34,1,1.34,1V0Z"/>
    <path class="cls-4" d="M1.34,333.2l42.69-.07c7.12,0,14.23,.04,21.35,.14,7.08,.2,14.27-.11,20.94-2.48,3.32-1.18,6.46-2.84,9.25-5,2.78-2.16,5.19-4.77,7.3-7.61,4.15-5.7,7.29-12.26,8.45-19.23,.31-1.74,.39-3.49,.39-5.27l-.06-5.33-.22-10.67c-.08-3.56,.02-7.13,.02-10.67-.02-3.55-.12-7.12,.15-10.69,.26-3.56,.93-7.14,2.34-10.45,1.39-3.31,3.39-6.35,5.82-8.98,2.44-2.63,5.31-4.84,8.43-6.59,3.11-1.77,6.5-3.05,10-3.81,7.02-1.54,14.22-1.25,21.31-1.22l21.34,.02,85.38,.08v.22l-85.38,.08-21.35,.02c-7.1-.02-14.27-.29-21.21,1.25-3.46,.76-6.79,2.02-9.87,3.78-3.08,1.74-5.91,3.92-8.3,6.52-2.39,2.59-4.36,5.59-5.72,8.85-1.38,3.25-2.03,6.76-2.28,10.29-.26,3.53-.15,7.09-.13,10.65,.01,3.57-.08,7.11,0,10.67l.25,10.67,.07,5.34c0,1.78-.08,3.6-.39,5.36-.27,1.77-.69,3.52-1.23,5.23-.52,1.72-1.18,3.39-1.9,5.02-1.46,3.27-3.28,6.37-5.39,9.27-2.12,2.88-4.57,5.55-7.4,7.77-2.84,2.21-6.05,3.92-9.43,5.13-6.79,2.44-14.11,2.76-21.19,2.59-7.11-.08-14.23-.09-21.34-.07l-42.69,.2v-1Z"/>
    <path class="cls-2" d="M1.34,34.05H12.14s5.4,.02,5.4,.02h2.71c.91,0,1.82,.03,2.73,.1,7.25,.56,14.4,2.84,20.53,6.8,6.12,3.95,11.19,9.52,14.51,16,3.32,6.47,5.06,13.77,4.92,21.03l-.02,21.62v10.81c-.04,3.61-.01,7.19,.33,10.76,.67,7.12,2.54,14.2,6.21,20.36,3.63,6.16,8.97,11.29,15.29,14.65,3.15,1.69,6.53,2.96,10.01,3.79,3.48,.84,7.07,1.12,10.66,1.2l21.61,.04,43.23,.05,86.46,.1v.22l-86.46,.1-43.23,.05h-21.62c-3.61-.06-7.24-.33-10.78-1.18-3.53-.84-6.95-2.12-10.16-3.82-6.42-3.39-11.87-8.6-15.57-14.85-3.75-6.25-5.65-13.44-6.35-20.63-.35-3.6-.39-7.24-.37-10.83v-10.81s-.04-21.61-.04-21.61c.13-7.15-1.6-14.3-4.87-20.63-3.27-6.34-8.24-11.77-14.24-15.63-6-3.86-13-6.09-20.1-6.62-.89-.07-1.78-.1-2.67-.11l-2.69,.02h-5.41s-10.81,.02-10.81,.02v-1Z"/>
    <path class="cls-3" d="M.58,298.36l21.5,.02c7.1,.28,14.24-1.13,20.65-4.18,6.4-3.03,11.99-7.78,16.03-13.6,4.06-5.82,6.55-12.7,7.37-19.74,.21-1.77,.28-3.52,.26-5.32v-5.37s.02-10.75,.02-10.75v-10.74c0-3.58,.09-7.19,.52-10.77,.4-3.58,1.14-7.12,2.23-10.56,1.13-3.42,2.62-6.74,4.57-9.78,3.84-6.12,9.4-11.13,15.86-14.35,3.23-1.61,6.66-2.81,10.18-3.57,3.53-.76,7.15-.95,10.73-1l21.49,.03,42.98,.05,85.96,.09v.22l-85.96,.09-42.98,.05-21.49,.02c-3.57,.06-7.15,.26-10.62,1.01-3.48,.75-6.86,1.94-10.04,3.54-6.36,3.18-11.82,8.13-15.59,14.16-1.92,2.99-3.38,6.27-4.48,9.64-1.07,3.39-1.79,6.89-2.18,10.44-.42,3.54-.5,7.11-.48,10.69v10.74s.03,10.75,.03,10.75v5.37c.04,1.78-.03,3.62-.24,5.41-.81,7.17-3.32,14.18-7.45,20.14-4.11,5.95-9.8,10.82-16.34,13.94-6.53,3.13-13.85,4.59-21.06,4.33l-21.48,.02v-1Z"/>
    <path class="cls-6" d="M.81,131.15c2.7,1.78,5.86,2.86,9.09,3.13,.8,.08,1.61,.06,2.45,.06h2.49s4.98,0,4.98,0l19.91,.02,39.82,.05,79.64,.1,159.27,.2v.22l-159.28,.2-79.64,.1-39.82,.05-19.91,.02h-4.98s-2.49,0-2.49,0c-.82,0-1.67,.02-2.52-.06-3.39-.27-6.71-1.4-9.55-3.26l.55-.84Z"/>
    <path class="cls-5" d="M0,208.72c6.07-5.7,14.11-9.24,22.4-9.87h.02s.02,0,.02,0l269.76,.36v.22l-269.76,.36h.04c-8.08,.64-15.9,4.11-21.79,9.67l-.68-.73Z"/>
  </g>
</svg>